<svg xmlns="http://www.w3.org/2000/svg" height="24" viewBox="0 -960 960 960" width="24" fill="#ffffff"><path d="M481.102-142.117q-140.806 0-239.319-98.564-98.512-98.565-98.512-239.371 0-134.909 91.481-231.37 91.482-96.46 224.093-104.73 6.943 0 14.067.461 7.124.462 14.008 1.692-29.499 28.923-46.595 68.75t-17.096 85.177q0 99.255 69.395 168.626 69.395 69.37 168.53 69.37 45.723 0 85.271-17.112 39.549-17.113 68.343-46.578 1.231 6.884 1.692 14.008.462 7.124.462 14.067-7.886 132.611-104.399 224.093-96.513 91.481-231.421 91.481Zm.207-55.96q88.653 0 159.46-49.865 70.808-49.866 103.616-129.981-21.141 5.455-42.186 8.631-21.045 3.177-40.911 3.177-122.177 0-208.098-85.921t-85.921-208.098q0-19.866 3.177-40.911 3.176-21.045 8.631-42.186-80.115 32.808-129.981 103.572-49.865 70.765-49.865 159.726 0 116.776 82.608 199.316 82.609 82.54 199.47 82.54Zm-9.347-272.731Z"/></svg>