<svg xmlns="http://www.w3.org/2000/svg" height="24" viewBox="0 -960 960 960" width="24"><path d="M377.309-192.001v-85.998h473.69v85.998h-473.69Zm0-246v-85.998h473.69v85.998h-473.69Zm0-244v-85.998h473.69v85.998h-473.69ZM193.424-149.463q-35.332 0-60.377-25.16-25.046-25.16-25.046-60.492 0-35.332 25.161-60.377 25.16-25.045 60.492-25.045 35.332 0 60.377 25.16t25.045 60.492q0 35.332-25.16 60.377t-60.492 25.045Zm0-246q-35.332 0-60.377-25.16-25.046-25.16-25.046-60.492 0-35.332 25.161-60.377 25.16-25.045 60.492-25.045 35.332 0 60.377 25.16t25.045 60.492q0 35.332-25.16 60.377t-60.492 25.045Zm0-244q-35.332 0-60.377-25.16-25.046-25.16-25.046-60.492 0-35.332 25.161-60.377 25.16-25.045 60.492-25.045 35.332 0 60.377 25.16t25.045 60.492q0 35.332-25.16 60.377t-60.492 25.045Z"/></svg>